<?xml version="1.0" encoding="UTF-8"?>
<svg width="412px" height="199px" viewBox="0 0 412 199" version="1.1" xmlns="http://www.w3.org/2000/svg" xmlns:xlink="http://www.w3.org/1999/xlink">
    <!-- Generator: Sketch 60 (88103) - https://sketch.com -->
    <title>500</title>
    <desc>Created with Sketch.</desc>
    <g id="Page-1" stroke="none" stroke-width="1" fill="none" fill-rule="evenodd">
        <g id="UED规范_PC端_布局风格实践_空页面_浅色" transform="translate(-943.000000, -900.000000)">
            <g id="500" transform="translate(90.000000, 430.000000)">
                <g transform="translate(853.000000, 470.000000)">
                    <path d="M112,51 L41,51 C36.0294373,51 32,55.0294373 32,60 C32,64.9705627 36.0294373,69 40.9999899,69 L82.1808707,68.9995826 L82.4670531,69.2601045 C83.4891726,70.1905754 84.0001711,71.461581 84.0001711,73 C84.0001711,73.9165625 83.8198973,74.7396264 83.4516347,75.4575548 L83.1727342,76.0012715 L82.5616587,76.0011457 L77,76 C72.0294373,76 68,80.0294373 68,85 C68,89.9705627 72.0294373,94 77,94 L148,94 C152.970563,94 157,89.9705627 157,85 C157,80.0294373 152.970563,76 148.000028,76 L106.822197,76.0011629 L106.543147,75.4583476 C106.173976,74.740224 105.993241,73.9168653 105.993241,73 C105.993241,71.4611407 106.505497,70.1898001 107.529816,69.25937 L107.81586,68.9995445 L108.202293,68.9995865 L112,69 C116.970563,69 121,64.9705627 121,60 C121,55.0294373 116.970563,51 112,51 Z" id="合并形状" stroke="#00A2D0" stroke-width="2"></path>
                    <path d="M384.110236,88 L341.062992,88 C338.266779,88 336,90.2667788 336,93.0629921 C336,95.8592055 338.266779,98.1259843 341.062959,98.1259843 L366.182428,98.1251476 L366.468559,98.3854285 C367.174655,99.0277325 367.527663,99.9052896 367.527663,100.944882 C367.527663,101.560169 367.405035,102.120359 367.152071,102.613837 L366.873279,103.1577 L366.262124,103.157666 L362.889764,103.15748 C360.09355,103.15748 357.826772,105.424259 357.826772,108.220472 C357.826772,111.016686 360.09355,113.283465 362.889764,113.283465 L405.937008,113.283465 C408.733221,113.283465 411,111.016686 411,108.220472 C411,105.424259 408.733221,103.15748 405.937015,103.15748 L380.730206,103.157671 L380.451224,102.61463 C380.197604,102.120957 380.074642,101.560472 380.074642,100.944882 C380.074642,99.9048492 380.42856,99.0269573 381.136161,98.3846944 L381.42225,98.1250222 L381.808613,98.1251605 L384.110236,98.1259843 C386.90645,98.1259843 389.173228,95.8592055 389.173228,93.0629921 C389.173228,90.2667788 386.90645,88 384.110236,88 Z" id="合并形状" stroke="#00A2D0" stroke-width="2"></path>
                    <rect id="矩形" fill="#00A2D0" x="0" y="115" width="35" height="3" rx="1.5"></rect>
                    <rect id="矩形" fill="#00A2D0" x="53" y="115" width="15" height="3" rx="1.5"></rect>
                    <path d="M227.806133,5.3137085 L353.67114,131.178716 C359.919528,137.427104 359.919528,147.557744 353.67114,153.806133 L333.476417,173.999417 L326.420417,173.999417 L349.936075,150.485281 C354.544262,145.877095 354.621065,138.453467 350.166484,133.751433 L349.936075,133.514719 L225.485281,9.06392514 C220.877095,4.45573849 213.453467,4.37893538 208.751433,8.8335158 L208.514719,9.06392514 L84.0639251,133.514719 C79.4557385,138.122905 79.3789354,145.546533 83.8335158,150.248567 L84.0639251,150.485281 L107.578417,173.999417 L99.507417,173.999417 L79.3137085,153.806133 C73.0653198,147.557744 73.0653198,137.427104 79.3137085,131.178716 L205.178716,5.3137085 C211.427104,-0.934680169 221.557744,-0.934680169 227.806133,5.3137085 Z" id="合并形状" fill="#00A2D0"></path>
                    <path d="M129,42 L305,42 C311.627417,42 317,47.372583 317,54 L317,87.7556082 L317,87.7556082 L293.012264,115.613114 L283.258249,149.476348 C277.241174,149.843898 271.474444,155.036443 265.958059,165.053983 C256.90477,172.006115 258.20138,164.399351 246.744955,177.515355 C239.107338,186.259358 232.975035,196.458302 228.348046,208.112186 C213.913572,208.332564 201.053747,211.24363 189.768571,216.845385 C178.483396,222.44714 168.586666,230.832011 160.078381,242 L129,242 C122.372583,242 117,236.627417 117,230 L117,54 C117,47.372583 122.372583,42 129,42 Z" id="矩形" fill="#FFFFFF" transform="translate(217.000000, 142.000000) rotate(45.000000) translate(-217.000000, -142.000000) "></path>
                    <path d="M56.3449053,196.772655 C86.0698745,176.961449 111.131094,168.870503 131.528564,172.499817 C151.926035,176.12913 167.508482,184.220076 178.275905,196.772655 C187.598383,190.883652 197.895666,187.93915 209.167753,187.93915 C220.439841,187.93915 229.420227,190.005511 236.10891,194.138233 C240.32369,191.060366 244.739985,189.521432 249.357793,189.521432 C253.975602,189.521432 257.044697,191.060366 258.565081,194.138233 C275.889034,181.022567 293.062323,174.464734 310.084947,174.464734 C327.107571,174.464734 341.122408,177.714753 352.129457,184.214789 L352.129457,238.311727 L56.3449053,238.311727 L56.3449053,196.772655 Z" id="路径-2"></path>
                    <path d="M56.3449053,196.772655 L56.3449053,196.772655 C86.0698745,176.961449 111.131094,168.870503 131.528564,172.499817 C151.926035,176.12913 167.508482,184.220076 178.275905,196.772655 C187.598383,190.883652 197.895666,187.93915 209.167753,187.93915 C220.439841,187.93915 229.420227,190.005511 236.10891,194.138233 C240.32369,191.060366 244.739985,189.521432 249.357793,189.521432 C253.975602,189.521432 257.044697,191.060366 258.565081,194.138233 C275.889034,181.022567 293.062323,174.464734 310.084947,174.464734 C327.107571,174.464734 341.122408,177.714753 352.129457,184.214789" id="路径" stroke="#00A2D0" stroke-width="3" stroke-linecap="round"></path>
                    <g id="分组-5" transform="translate(213.560660, 116.967100) rotate(-45.000000) translate(-213.560660, -116.967100) translate(154.060660, 59.967100)">
                        <path d="M103,37.5935604 C109.496807,37.5935604 115.142418,41.237967 118.004011,46.5939595 L108,46.5935604 C105.857805,46.5935604 104.108921,48.2775289 104.004895,50.3939201 L104,50.5935604 L104,58.5935604 C104,60.7357558 105.683968,62.4846393 107.80036,62.5886651 L108,62.5935604 L118.003478,62.5941573 C115.141718,67.9496056 109.496405,71.5935604 103,71.5935604 C96.1069518,71.5935604 90.1720958,67.4910519 87.5039091,61.5945119 L32.4960909,61.5945119 C29.8279042,67.4910519 23.8930482,71.5935604 17,71.5935604 C7.61115925,71.5935604 0,63.9824012 0,54.5935604 C0,45.2047197 7.61115925,37.5935604 17,37.5935604 C23.8934392,37.5935604 29.8285775,41.6965344 32.4965449,47.5936124 L87.5034551,47.5936124 C90.1714225,41.6965344 96.1065608,37.5935604 103,37.5935604 Z M21.1817104,44.8544814 L12.7626749,44.8544814 L6.80951776,50.8076385 L6.80951776,59.226674 L12.7626749,65.1798311 L21.1817104,65.1798311 L27.1348675,59.226674 L27.1348675,50.8076385 L21.1817104,44.8544814 Z" id="合并形状" stroke="#00A2D0" stroke-width="2"></path>
                        <path d="M59,6.16243907 L59,52.4142136 L67,52.4142136 L67,6.15307108 L63.0003693,-3.34394172 L59,6.16243907 Z" id="矩形" stroke="#049BCA" stroke-width="2"></path>
                        <path d="M73,53.007774 C74.1045695,53.007774 75,53.9032045 75,55.007774 L75,61.007774 L75,61.007774 C71.1340068,61.007774 68,64.1417807 68,68.007774 C68,71.8737672 71.1340068,75.007774 75,75.007774 L75,111.007774 C75,112.112343 74.1045695,113.007774 73,113.007774 L53,113.007774 C51.8954305,113.007774 51,112.112343 51,111.007774 L51,75.007774 L51,75.007774 C54.8659932,75.007774 58,71.8737672 58,68.007774 C58,64.1417807 54.8659932,61.007774 51,61.007774 L51,55.007774 C51,53.9032045 51.8954305,53.007774 53,53.007774 L73,53.007774 Z" id="合并形状" fill="#00A2D0"></path>
                    </g>
                </g>
            </g>
        </g>
    </g>
</svg>